<?xml version="1.0" encoding="utf-8"?>
<!DOCTYPE svg PUBLIC "-//W3C//DTD SVG 1.1//EN" "http://www.w3.org/Graphics/SVG/1.1/DTD/svg11.dtd">
<svg version="1.1" id="Layer_1" xmlns="http://www.w3.org/2000/svg" xmlns:xlink="http://www.w3.org/1999/xlink" x="0px" y="0px"
	 width="36.409px" height="30px" viewBox="0 0 36.409 30" enable-background="new 0 0 36.409 30" xml:space="preserve">
<g>
	<path fill="#FFFFFF" d="M0,14.982c0.027-0.97,0.003-2.015,0.252-2.961c0.213-0.805,0.361-1.669,0.714-2.426
		c0.132-0.282,0.25-0.574,0.375-0.863c0.119-0.273,0.257-0.648,0.436-0.883C2.149,7.364,2.434,6.771,2.77,6.254
		c0.299-0.459,0.718-0.996,1.117-1.378C4.071,4.7,4.234,4.501,4.422,4.322c0.143-0.136,0.54-0.369,0.617-0.537
		C5.117,3.614,5.39,3.448,5.537,3.333c0.227-0.178,0.47-0.333,0.683-0.516c0.508-0.436,1.158-0.775,1.75-1.079
		c1.337-0.686,2.714-1.143,4.184-1.46c0.185-0.04,0.35,0.025,0.515,0.095c0.222,0.094,0.337,0.288,0.431,0.491
		c0.039,0.084,0.026,0.193,0.036,0.291c0.028,0.289-0.11,0.508-0.314,0.685c-0.096,0.083-0.222,0.14-0.343,0.184
		c-0.468,0.17-1.063,0.133-1.501,0.385c-0.208,0.119-0.469,0.143-0.69,0.24c-0.249,0.109-0.508,0.193-0.755,0.309
		c-0.997,0.47-2.027,1.025-2.854,1.762C5.986,5.337,5.331,5.937,4.734,6.65C4.063,7.451,3.612,8.361,3.078,9.242
		C2.832,9.646,2.659,10.149,2.523,10.6c-0.17,0.564-0.368,1.098-0.476,1.682c-0.199,1.072-0.398,2.203-0.287,3.303
		c0.119,1.188,0.224,2.406,0.646,3.533c0.371,0.99,0.774,1.913,1.326,2.815c2.201,3.595,6.138,6.004,10.364,6.237
		c1.249,0.069,2.44-0.016,3.67-0.237c0.91-0.163,1.937-0.485,2.756-0.918c1.917-1.013,3.722-2.262,5.007-4.05
		c0.428-0.596,0.768-1.201,1.135-1.832c0.182-0.314,0.37-0.655,0.493-0.997c0.089-0.246,0.176-0.742,0.491-0.741
		c2.882,0.001,5.764,0.022,8.646,0.002c0.104-0.001,0.137,0.04,0.097,0.14c-0.474,1.184-1.03,2.311-1.653,3.429
		c-0.313,0.562-0.735,1.085-1.146,1.577c-0.422,0.505-0.833,1.054-1.347,1.471c-0.246,0.199-0.483,0.409-0.733,0.603
		c-0.261,0.203-0.561,0.392-0.795,0.63c-0.106,0.108-0.276,0.155-0.4,0.247c-0.144,0.107-0.276,0.218-0.435,0.304
		c-0.299,0.161-0.615,0.301-0.903,0.476c-1.02,0.62-2.224,1.049-3.386,1.32c-0.249,0.058-0.502,0.087-0.754,0.035
		c-0.145-0.03-0.361-0.174-0.44-0.305c-0.315-0.524-0.14-0.873,0.21-1.292c0.033-0.04,0.094-0.065,0.147-0.08
		c1.823-0.522,3.62-1.105,5.114-2.32c1.467-1.193,2.881-2.534,3.737-4.249c0.022-0.044,0.046-0.089,0.056-0.136
		c0.013-0.059-0.02-0.084-0.081-0.083c-0.815,0.002-1.629,0.004-2.444,0.006c-0.796,0.002-1.615-0.054-2.408,0.007
		c-0.106,0.008-0.106,0.013-0.141,0.119c-0.144,0.434-0.427,0.882-0.662,1.274c-0.27,0.452-0.542,0.947-0.884,1.347
		c-0.645,0.754-1.244,1.492-1.97,2.189c-0.736,0.706-1.601,1.287-2.47,1.819c-0.816,0.5-1.78,1.03-2.71,1.262
		c-1.089,0.272-2.124,0.597-3.247,0.733c-1.231,0.149-2.417,0.08-3.641-0.057c-0.57-0.064-1.146-0.142-1.7-0.302
		c-0.265-0.077-0.542-0.132-0.801-0.224c-0.257-0.091-0.589-0.145-0.81-0.308c-0.08-0.059-0.23-0.055-0.323-0.094
		c-0.093-0.039-0.19-0.123-0.288-0.145c-0.221-0.049-0.405-0.19-0.614-0.27c-0.569-0.218-1.057-0.609-1.593-0.891
		c-0.388-0.205-0.757-0.505-1.103-0.781c-0.393-0.313-0.947-0.663-1.242-1.067c-0.244-0.334-0.59-0.595-0.854-0.914
		c-0.326-0.394-0.654-0.777-0.948-1.195c-0.578-0.822-1.09-1.707-1.492-2.628C0.383,19.095,0.054,17.098,0,14.982
		C0.014,14.477,0.012,15.455,0,14.982z"/>
	<path fill="#FFFFFF" d="M31.933,10.588c-1.462,0-2.925-0.014-4.387,0.008c-0.072,0.001-0.126-0.023-0.149-0.101
		c-0.09-0.31-0.228-0.652-0.384-0.935c-0.157-0.285-0.252-0.616-0.434-0.886c-0.191-0.282-0.334-0.6-0.535-0.882
		c-0.115-0.161-0.227-0.324-0.339-0.488c-0.076-0.112-0.219-0.393-0.327-0.465c-0.202-0.135-0.356-0.416-0.522-0.593
		c-0.24-0.257-0.478-0.517-0.727-0.766c-0.397-0.397-0.866-0.861-1.358-1.139c-0.198-0.112-0.342-0.28-0.416-0.493
		c-0.039-0.112-0.046-0.238-0.054-0.359c-0.004-0.069,0.007-0.145,0.035-0.207c0.07-0.152,0.187-0.431,0.36-0.5
		c0.257-0.101,0.504-0.211,0.795-0.08c0.458,0.206,0.865,0.601,1.243,0.923c0.465,0.396,0.886,0.821,1.306,1.264
		c0.697,0.736,1.404,1.616,1.874,2.52c0.224,0.431,0.464,0.848,0.663,1.292c0.046,0.103,0.099,0.142,0.214,0.136
		c1.557-0.081,3.18-0.101,4.736-0.002c0.119,0.008,0.163-0.066,0.101-0.179c-0.918-1.675-2.202-3.107-3.721-4.253
		c-0.948-0.715-1.969-1.267-3.07-1.713c-0.947-0.384-2.065-0.733-3.089-0.787c-0.567-0.03-1.118-0.107-1.688-0.111
		c-0.628-0.005-1.244,0.081-1.87,0.116c-1.044,0.058-2.041,0.514-3.024,0.814c-0.986,0.301-2.05,0.942-2.866,1.562
		c-0.881,0.67-1.762,1.399-2.44,2.281C10.457,8.392,9.384,10.4,9.018,12.7c-0.403,2.532-0.207,5.263,0.911,7.599
		c0.511,1.067,1.063,2.137,1.837,3.05c0.424,0.5,0.878,0.99,1.364,1.43c0.223,0.202,0.462,0.388,0.691,0.583
		c0.239,0.203,0.592,0.37,0.747,0.651c0.036,0.08,0.064,0.162,0.085,0.248c0.062,0.136,0.065,0.272,0.003,0.408
		c-0.045,0.097-0.036,0.212-0.114,0.3c-0.14,0.158-0.27,0.323-0.505,0.34c-0.037,0.003-0.073,0.017-0.109,0.028
		c-0.116,0.035-0.23,0.04-0.342-0.015c-0.109-0.053-0.205-0.036-0.305-0.122c-0.359-0.31-0.749-0.573-1.109-0.887
		c-0.458-0.399-0.887-0.811-1.29-1.267c-0.737-0.833-1.359-1.723-1.933-2.676c-1.134-1.883-1.624-4.04-1.89-6.193
		c-0.276-2.231,0.188-4.705,1.042-6.761c0.814-1.959,2.003-3.836,3.58-5.285c0.45-0.413,0.918-0.821,1.408-1.18
		c0.409-0.3,0.863-0.667,1.32-0.884c0.509-0.241,0.977-0.584,1.511-0.775c0.244-0.087,0.516-0.186,0.749-0.295
		c0.253-0.119,0.634-0.308,0.905-0.338c0.391-0.043,0.813-0.193,1.197-0.288c0.545-0.135,1.098-0.215,1.656-0.274
		c1.14-0.121,2.291-0.145,3.429,0.021c1.845,0.269,3.65,0.77,5.293,1.675c1.676,0.923,3.157,2.155,4.4,3.607
		c0.651,0.761,1.249,1.622,1.709,2.513c0.426,0.825,0.731,1.699,1.125,2.538c0.051,0.109,0.027,0.144-0.091,0.141
		C34.843,10.544,33.384,10.588,31.933,10.588C31.933,10.588,31.933,10.588,31.933,10.588C30.565,10.588,31.933,10.588,31.933,10.588
		z"/>
</g>
</svg>
